<svg width="350" height="275" viewBox="0 0 350 275" fill="none" xmlns="http://www.w3.org/2000/svg">
<path d="M275.49 120.13L275.596 121.124L275.596 121.124L275.49 120.13ZM241.072 123.797L240.966 122.803L240.966 122.803L241.072 123.797ZM331.765 87.9069L332.53 88.5509L331.765 87.9069ZM328.255 92.0768L329.02 92.7208L329.02 92.7208L328.255 92.0768ZM145.563 167.326L144.882 166.594L144.882 166.594L145.563 167.326ZM135.437 176.743L136.118 177.475L136.118 177.475L135.437 176.743ZM107.799 210.292L106.95 209.764L106.95 209.764L107.799 210.292ZM90.2965 238.426L91.1456 238.954L91.1456 238.954L90.2965 238.426ZM-2.70925 267.238L-2.30749 266.323L-2.3075 266.323L-2.70925 267.238ZM-13.8367 261.584C-14.3512 261.785 -14.6056 262.365 -14.4049 262.879L-11.1338 271.264C-10.9331 271.778 -10.3533 272.033 -9.83874 271.832C-9.32422 271.631 -9.06985 271.052 -9.27058 270.537L-12.1782 263.084L-4.72527 260.177C-4.21076 259.976 -3.95638 259.396 -4.15711 258.881C-4.35784 258.367 -4.93766 258.113 -5.45218 258.313L-13.8367 261.584ZM49.7925 269.975L50.0969 270.928L50.0969 270.928L49.7925 269.975ZM275.384 119.136L240.966 122.803L241.178 124.791L275.596 121.124L275.384 119.136ZM331 87.263L327.49 91.4329L329.02 92.7208L332.53 88.5509L331 87.263ZM144.882 166.594L134.756 176.011L136.118 177.475L146.244 168.059L144.882 166.594ZM106.95 209.764L89.4474 237.897L91.1456 238.954L108.648 210.82L106.95 209.764ZM-2.3075 266.323L-13.0715 261.6L-13.875 263.432L-3.111 268.154L-2.3075 266.323ZM49.4882 269.023C32.4702 274.46 14.0528 273.5 -2.30749 266.323L-3.111 268.154C13.6954 275.527 32.6149 276.514 50.0969 270.928L49.4882 269.023ZM89.4474 237.897C80.2459 252.688 66.0811 263.721 49.4882 269.023L50.0969 270.928C67.1422 265.482 81.6932 254.148 91.1456 238.954L89.4474 237.897ZM134.756 176.011C124.035 185.982 114.684 197.332 106.95 209.764L108.648 210.82C116.289 198.539 125.526 187.326 136.118 177.475L134.756 176.011ZM336.2 1.90675C353.475 28.3936 351.363 63.0694 331 87.263L332.53 88.5509C353.461 63.6825 355.632 28.0397 337.876 0.814165L336.2 1.90675ZM275.596 121.124C296.403 118.907 315.546 108.73 329.02 92.7208L327.49 91.4329C314.348 107.047 295.677 116.973 275.384 119.136L275.596 121.124ZM240.966 122.803C205.046 126.63 171.334 141.994 144.882 166.594L146.244 168.059C172.38 143.753 205.688 128.573 241.178 124.791L240.966 122.803Z" fill="#D4EAD5"/>
</svg>
